<svg width="349" height="444" viewBox="0 0 349 444" fill="none" xmlns="http://www.w3.org/2000/svg">
<rect width="349" height="444" rx="16" fill="url(#paint0_linear_38_648)"/>
<path d="M39.552 257.248V274H36.192V266.872H29.016V274H25.656V257.248H29.016V264.136H36.192V257.248H39.552ZM41.9951 267.304C41.9951 265.96 42.2591 264.768 42.7871 263.728C43.3311 262.688 44.0591 261.888 44.9711 261.328C45.8991 260.768 46.9311 260.488 48.0671 260.488C49.0591 260.488 49.9231 260.688 50.6591 261.088C51.4111 261.488 52.0111 261.992 52.4591 262.6V260.704H55.8431V274H52.4591V272.056C52.0271 272.68 51.4271 273.2 50.6591 273.616C49.9071 274.016 49.0351 274.216 48.0431 274.216C46.9231 274.216 45.8991 273.928 44.9711 273.352C44.0591 272.776 43.3311 271.968 42.7871 270.928C42.2591 269.872 41.9951 268.664 41.9951 267.304ZM52.4591 267.352C52.4591 266.536 52.2991 265.84 51.9791 265.264C51.6591 264.672 51.2271 264.224 50.6831 263.92C50.1391 263.6 49.5551 263.44 48.9311 263.44C48.3071 263.44 47.7311 263.592 47.2031 263.896C46.6751 264.2 46.2431 264.648 45.9071 265.24C45.5871 265.816 45.4271 266.504 45.4271 267.304C45.4271 268.104 45.5871 268.808 45.9071 269.416C46.2431 270.008 46.6751 270.464 47.2031 270.784C47.7471 271.104 48.3231 271.264 48.9311 271.264C49.5551 271.264 50.1391 271.112 50.6831 270.808C51.2271 270.488 51.6591 270.04 51.9791 269.464C52.2991 268.872 52.4591 268.168 52.4591 267.352ZM66.4928 260.512C68.0768 260.512 69.3568 261.016 70.3328 262.024C71.3088 263.016 71.7968 264.408 71.7968 266.2V274H68.4368V266.656C68.4368 265.6 68.1728 264.792 67.6448 264.232C67.1168 263.656 66.3968 263.368 65.4848 263.368C64.5568 263.368 63.8208 263.656 63.2768 264.232C62.7488 264.792 62.4848 265.6 62.4848 266.656V274H59.1248V260.704H62.4848V262.36C62.9328 261.784 63.5008 261.336 64.1888 261.016C64.8928 260.68 65.6608 260.512 66.4928 260.512ZM74.1279 267.304C74.1279 265.96 74.3919 264.768 74.9199 263.728C75.4639 262.688 76.1999 261.888 77.1279 261.328C78.0559 260.768 79.0879 260.488 80.2239 260.488C81.0879 260.488 81.9119 260.68 82.6959 261.064C83.4799 261.432 84.1039 261.928 84.5679 262.552V256.24H87.9759V274H84.5679V272.032C84.1519 272.688 83.5679 273.216 82.8159 273.616C82.0639 274.016 81.1919 274.216 80.1999 274.216C79.0799 274.216 78.0559 273.928 77.1279 273.352C76.1999 272.776 75.4639 271.968 74.9199 270.928C74.3919 269.872 74.1279 268.664 74.1279 267.304ZM84.5919 267.352C84.5919 266.536 84.4319 265.84 84.1119 265.264C83.7919 264.672 83.3599 264.224 82.8159 263.92C82.2719 263.6 81.6879 263.44 81.0639 263.44C80.4399 263.44 79.8639 263.592 79.3359 263.896C78.8079 264.2 78.3759 264.648 78.0399 265.24C77.7199 265.816 77.5599 266.504 77.5599 267.304C77.5599 268.104 77.7199 268.808 78.0399 269.416C78.3759 270.008 78.8079 270.464 79.3359 270.784C79.8799 271.104 80.4559 271.264 81.0639 271.264C81.6879 271.264 82.2719 271.112 82.8159 270.808C83.3599 270.488 83.7919 270.04 84.1119 269.464C84.4319 268.872 84.5919 268.168 84.5919 267.352ZM94.6176 256.24V274H91.2576V256.24H94.6176ZM110.297 267.064C110.297 267.544 110.265 267.976 110.201 268.36H100.481C100.561 269.32 100.897 270.072 101.489 270.616C102.081 271.16 102.809 271.432 103.673 271.432C104.921 271.432 105.809 270.896 106.337 269.824H109.961C109.577 271.104 108.841 272.16 107.753 272.992C106.665 273.808 105.329 274.216 103.745 274.216C102.465 274.216 101.313 273.936 100.289 273.376C99.2813 272.8 98.4893 271.992 97.9133 270.952C97.3533 269.912 97.0732 268.712 97.0732 267.352C97.0732 265.976 97.3533 264.768 97.9133 263.728C98.4733 262.688 99.2573 261.888 100.265 261.328C101.273 260.768 102.433 260.488 103.745 260.488C105.009 260.488 106.137 260.76 107.129 261.304C108.137 261.848 108.913 262.624 109.457 263.632C110.017 264.624 110.297 265.768 110.297 267.064ZM106.817 266.104C106.801 265.24 106.489 264.552 105.881 264.04C105.273 263.512 104.529 263.248 103.649 263.248C102.817 263.248 102.113 263.504 101.537 264.016C100.977 264.512 100.633 265.208 100.505 266.104H106.817ZM116.11 262.648C116.542 262.008 117.134 261.488 117.886 261.088C118.654 260.688 119.526 260.488 120.502 260.488C121.638 260.488 122.662 260.768 123.574 261.328C124.502 261.888 125.23 262.688 125.758 263.728C126.302 264.752 126.574 265.944 126.574 267.304C126.574 268.664 126.302 269.872 125.758 270.928C125.23 271.968 124.502 272.776 123.574 273.352C122.662 273.928 121.638 274.216 120.502 274.216C119.51 274.216 118.638 274.024 117.886 273.64C117.15 273.24 116.558 272.728 116.11 272.104V274H112.75V256.24H116.11V262.648ZM123.142 267.304C123.142 266.504 122.974 265.816 122.638 265.24C122.318 264.648 121.886 264.2 121.342 263.896C120.814 263.592 120.238 263.44 119.614 263.44C119.006 263.44 118.43 263.6 117.886 263.92C117.358 264.224 116.926 264.672 116.59 265.264C116.27 265.856 116.11 266.552 116.11 267.352C116.11 268.152 116.27 268.848 116.59 269.44C116.926 270.032 117.358 270.488 117.886 270.808C118.43 271.112 119.006 271.264 119.614 271.264C120.238 271.264 120.814 271.104 121.342 270.784C121.886 270.464 122.318 270.008 122.638 269.416C122.974 268.824 123.142 268.12 123.142 267.304ZM128.151 267.304C128.151 265.96 128.415 264.768 128.943 263.728C129.487 262.688 130.215 261.888 131.127 261.328C132.055 260.768 133.087 260.488 134.223 260.488C135.215 260.488 136.079 260.688 136.815 261.088C137.567 261.488 138.167 261.992 138.615 262.6V260.704H141.999V274H138.615V272.056C138.183 272.68 137.583 273.2 136.815 273.616C136.063 274.016 135.191 274.216 134.199 274.216C133.079 274.216 132.055 273.928 131.127 273.352C130.215 272.776 129.487 271.968 128.943 270.928C128.415 269.872 128.151 268.664 128.151 267.304ZM138.615 267.352C138.615 266.536 138.455 265.84 138.135 265.264C137.815 264.672 137.383 264.224 136.839 263.92C136.295 263.6 135.711 263.44 135.087 263.44C134.463 263.44 133.887 263.592 133.359 263.896C132.831 264.2 132.399 264.648 132.063 265.24C131.743 265.816 131.583 266.504 131.583 267.304C131.583 268.104 131.743 268.808 132.063 269.416C132.399 270.008 132.831 270.464 133.359 270.784C133.903 271.104 134.479 271.264 135.087 271.264C135.711 271.264 136.295 271.112 136.839 270.808C137.383 270.488 137.815 270.04 138.135 269.464C138.455 268.872 138.615 268.168 138.615 267.352ZM148.641 262.768C149.073 262.064 149.633 261.512 150.321 261.112C151.025 260.712 151.825 260.512 152.721 260.512V264.04H151.833C150.777 264.04 149.977 264.288 149.433 264.784C148.905 265.28 148.641 266.144 148.641 267.376V274H145.281V260.704H148.641V262.768Z" fill="#FAF4EA"/>
<path d="M25.358 323V313.004H32.862V323H31.616V314.11H26.618V323H25.358ZM41.1422 323H39.8962V316.518H37.6842C37.5909 317.703 37.4742 318.716 37.3342 319.556C37.1942 320.387 37.0169 321.063 36.8022 321.586C36.5876 322.109 36.3309 322.491 36.0322 322.734C35.7336 322.977 35.3836 323.098 34.9822 323.098C34.8609 323.098 34.7396 323.089 34.6182 323.07C34.5062 323.061 34.4129 323.037 34.3382 323V322.076C34.3942 322.095 34.4549 322.109 34.5202 322.118C34.5856 322.127 34.6509 322.132 34.7162 322.132C34.9216 322.132 35.1082 322.048 35.2762 321.88C35.4442 321.712 35.5936 321.455 35.7242 321.11C35.8642 320.765 35.9902 320.331 36.1022 319.808C36.2142 319.276 36.3122 318.651 36.3962 317.932C36.4802 317.213 36.5549 316.401 36.6202 315.496H41.1422V323ZM50.048 319.234C50.048 319.859 49.964 320.415 49.796 320.9C49.6373 321.376 49.404 321.782 49.096 322.118C48.7973 322.454 48.4287 322.711 47.99 322.888C47.5607 323.056 47.08 323.14 46.548 323.14C46.0533 323.14 45.596 323.056 45.176 322.888C44.756 322.711 44.392 322.454 44.084 322.118C43.776 321.782 43.5333 321.376 43.356 320.9C43.188 320.415 43.104 319.859 43.104 319.234C43.104 318.403 43.244 317.703 43.524 317.134C43.804 316.555 44.2053 316.117 44.728 315.818C45.2507 315.51 45.8713 315.356 46.59 315.356C47.2713 315.356 47.8687 315.51 48.382 315.818C48.9047 316.117 49.3107 316.555 49.6 317.134C49.8987 317.703 50.048 318.403 50.048 319.234ZM44.378 319.234C44.378 319.822 44.4527 320.335 44.602 320.774C44.7607 321.203 45.0033 321.535 45.33 321.768C45.6567 322.001 46.072 322.118 46.576 322.118C47.08 322.118 47.4953 322.001 47.822 321.768C48.1487 321.535 48.3867 321.203 48.536 320.774C48.6947 320.335 48.774 319.822 48.774 319.234C48.774 318.637 48.6947 318.128 48.536 317.708C48.3773 317.288 48.1347 316.966 47.808 316.742C47.4907 316.509 47.0753 316.392 46.562 316.392C45.7967 316.392 45.2413 316.644 44.896 317.148C44.5507 317.652 44.378 318.347 44.378 319.234ZM62.1645 315.496V321.978H63.2565V325.59H62.0245V323H52.0005V315.496H53.2325V321.964H56.4665V315.496H57.6985V321.964H60.9465V315.496H62.1645ZM67.53 315.37C68.4447 315.37 69.1214 315.571 69.56 315.972C69.9987 316.373 70.218 317.013 70.218 317.89V323H69.322L69.084 321.936H69.028C68.8134 322.207 68.5894 322.435 68.356 322.622C68.132 322.799 67.8707 322.93 67.572 323.014C67.2827 323.098 66.928 323.14 66.508 323.14C66.06 323.14 65.654 323.061 65.29 322.902C64.9354 322.743 64.6554 322.501 64.45 322.174C64.2447 321.838 64.142 321.418 64.142 320.914C64.142 320.167 64.436 319.593 65.024 319.192C65.612 318.781 66.5174 318.557 67.74 318.52L69.014 318.478V318.03C69.014 317.405 68.8787 316.971 68.608 316.728C68.3374 316.485 67.9547 316.364 67.46 316.364C67.068 316.364 66.6947 316.425 66.34 316.546C65.9854 316.658 65.654 316.789 65.346 316.938L64.968 316.014C65.2947 315.837 65.682 315.687 66.13 315.566C66.578 315.435 67.0447 315.37 67.53 315.37ZM67.894 319.374C66.9607 319.411 66.312 319.561 65.948 319.822C65.5934 320.083 65.416 320.452 65.416 320.928C65.416 321.348 65.542 321.656 65.794 321.852C66.0554 322.048 66.3867 322.146 66.788 322.146C67.4227 322.146 67.95 321.973 68.37 321.628C68.79 321.273 69 320.732 69 320.004V319.332L67.894 319.374ZM72.6337 323.07C72.4284 323.07 72.2557 323 72.1157 322.86C71.985 322.72 71.9197 322.547 71.9197 322.342C71.9197 322.137 71.985 321.969 72.1157 321.838C72.2557 321.698 72.4284 321.628 72.6337 321.628C72.8297 321.628 72.993 321.698 73.1237 321.838C73.2637 321.969 73.3337 322.137 73.3337 322.342C73.3337 322.547 73.2637 322.72 73.1237 322.86C72.993 323 72.8297 323.07 72.6337 323.07ZM72.6337 316.98C72.4284 316.98 72.2557 316.91 72.1157 316.77C71.985 316.63 71.9197 316.457 71.9197 316.252C71.9197 316.047 71.985 315.879 72.1157 315.748C72.2557 315.608 72.4284 315.538 72.6337 315.538C72.8297 315.538 72.993 315.608 73.1237 315.748C73.2637 315.879 73.3337 316.047 73.3337 316.252C73.3337 316.457 73.2637 316.63 73.1237 316.77C72.993 316.91 72.8297 316.98 72.6337 316.98ZM84.5335 315.496V321.964H85.6255V325.604H84.4355V323H79.2135V325.604H78.0375V321.964H78.6395C79.0688 321.367 79.4235 320.718 79.7035 320.018C79.9928 319.309 80.2075 318.571 80.3475 317.806C80.4968 317.031 80.5762 316.261 80.5855 315.496H84.5335ZM81.6775 316.462C81.6402 317.097 81.5422 317.755 81.3835 318.436C81.2248 319.108 81.0195 319.752 80.7675 320.368C80.5248 320.984 80.2402 321.516 79.9135 321.964H83.3435V316.462H81.6775ZM93.6202 319.234C93.6202 319.859 93.5363 320.415 93.3683 320.9C93.2096 321.376 92.9763 321.782 92.6683 322.118C92.3696 322.454 92.0009 322.711 91.5623 322.888C91.1329 323.056 90.6523 323.14 90.1203 323.14C89.6256 323.14 89.1683 323.056 88.7483 322.888C88.3283 322.711 87.9643 322.454 87.6562 322.118C87.3483 321.782 87.1056 321.376 86.9283 320.9C86.7603 320.415 86.6763 319.859 86.6763 319.234C86.6763 318.403 86.8163 317.703 87.0963 317.134C87.3763 316.555 87.7776 316.117 88.3003 315.818C88.8229 315.51 89.4436 315.356 90.1623 315.356C90.8436 315.356 91.4409 315.51 91.9543 315.818C92.4769 316.117 92.8829 316.555 93.1723 317.134C93.4709 317.703 93.6202 318.403 93.6202 319.234ZM87.9503 319.234C87.9503 319.822 88.0249 320.335 88.1743 320.774C88.3329 321.203 88.5756 321.535 88.9023 321.768C89.2289 322.001 89.6443 322.118 90.1483 322.118C90.6523 322.118 91.0676 322.001 91.3943 321.768C91.7209 321.535 91.9589 321.203 92.1083 320.774C92.2669 320.335 92.3463 319.822 92.3463 319.234C92.3463 318.637 92.2669 318.128 92.1083 317.708C91.9496 317.288 91.7069 316.966 91.3803 316.742C91.0629 316.509 90.6476 316.392 90.1343 316.392C89.3689 316.392 88.8136 316.644 88.4683 317.148C88.1229 317.652 87.9503 318.347 87.9503 319.234ZM98.6586 313.844V312.962H101.039V323H100.045V313.844H98.6586ZM109.551 313.802H104.427V317.386C104.66 317.059 105.001 316.793 105.449 316.588C105.897 316.373 106.382 316.266 106.905 316.266C107.67 316.266 108.295 316.425 108.781 316.742C109.266 317.05 109.616 317.456 109.831 317.96C110.045 318.455 110.153 318.987 110.153 319.556C110.153 320.209 110.027 320.802 109.775 321.334C109.532 321.857 109.154 322.272 108.641 322.58C108.137 322.888 107.507 323.042 106.751 323.042C105.789 323.042 105.01 322.795 104.413 322.3C103.815 321.796 103.451 321.119 103.321 320.27H104.287C104.408 320.886 104.688 321.362 105.127 321.698C105.565 322.034 106.107 322.202 106.751 322.202C107.563 322.202 108.174 321.964 108.585 321.488C109.005 321.003 109.215 320.363 109.215 319.57C109.215 318.795 109.005 318.193 108.585 317.764C108.165 317.325 107.563 317.106 106.779 317.106C106.237 317.106 105.761 317.232 105.351 317.484C104.94 317.736 104.637 318.077 104.441 318.506H103.517V312.948H109.551V313.802ZM124.035 315.496V323H122.929V318.212C122.929 318.016 122.934 317.811 122.943 317.596C122.962 317.381 122.98 317.171 122.999 316.966H122.957L120.507 323H119.471L117.091 316.966H117.049C117.068 317.171 117.077 317.381 117.077 317.596C117.086 317.811 117.091 318.03 117.091 318.254V323H115.985V315.496H117.623L119.989 321.53L122.397 315.496H124.035ZM125.954 322.23C127.672 320.942 128.997 319.789 129.93 318.772C130.873 317.745 131.344 316.742 131.344 315.762C131.344 315.118 131.181 314.605 130.854 314.222C130.537 313.83 130.014 313.634 129.286 313.634C128.577 313.634 128.026 313.858 127.634 314.306C127.252 314.745 127.037 315.333 126.99 316.07H126.038C126.094 315.034 126.412 314.231 126.99 313.662C127.578 313.083 128.344 312.794 129.286 312.794C130.192 312.794 130.924 313.051 131.484 313.564C132.044 314.068 132.324 314.787 132.324 315.72C132.324 316.849 131.853 317.946 130.91 319.01C129.977 320.065 128.824 321.096 127.452 322.104H132.632V322.93H125.954V322.23ZM29.768 344L26.478 335.236H26.422C26.4407 335.423 26.4547 335.661 26.464 335.95C26.4827 336.239 26.4967 336.557 26.506 336.902C26.5153 337.238 26.52 337.583 26.52 337.938V344H25.358V334.004H27.22L30.3 342.194H30.356L33.492 334.004H35.34V344H34.094V337.854C34.094 337.527 34.0987 337.205 34.108 336.888C34.1173 336.561 34.1313 336.258 34.15 335.978C34.1687 335.689 34.1827 335.446 34.192 335.25H34.136L30.804 344H29.768ZM40.7892 336.356C41.4332 336.356 41.9838 336.496 42.4412 336.776C42.9078 337.056 43.2625 337.453 43.5052 337.966C43.7572 338.47 43.8832 339.063 43.8832 339.744V340.486H38.7452C38.7638 341.335 38.9785 341.984 39.3892 342.432C39.8092 342.871 40.3925 343.09 41.1392 343.09C41.6152 343.09 42.0352 343.048 42.3992 342.964C42.7725 342.871 43.1552 342.74 43.5472 342.572V343.65C43.1645 343.818 42.7865 343.939 42.4132 344.014C42.0398 344.098 41.5965 344.14 41.0832 344.14C40.3738 344.14 39.7438 343.995 39.1932 343.706C38.6518 343.417 38.2272 342.987 37.9192 342.418C37.6205 341.839 37.4712 341.135 37.4712 340.304C37.4712 339.483 37.6065 338.778 37.8772 338.19C38.1572 337.602 38.5445 337.149 39.0392 336.832C39.5432 336.515 40.1265 336.356 40.7892 336.356ZM40.7752 337.364C40.1872 337.364 39.7205 337.555 39.3752 337.938C39.0392 338.311 38.8385 338.834 38.7732 339.506H42.5952C42.5952 339.077 42.5298 338.703 42.3992 338.386C42.2685 338.069 42.0678 337.821 41.7972 337.644C41.5358 337.457 41.1952 337.364 40.7752 337.364ZM47.0255 336.496V339.618H51.0995V336.496H52.3315V344H51.0995V340.654H47.0255V344H45.7935V336.496H47.0255ZM64.4516 340.234C64.4516 341.065 64.3162 341.774 64.0456 342.362C63.7749 342.941 63.3922 343.384 62.8976 343.692C62.4029 343.991 61.8149 344.14 61.1336 344.14C60.4989 344.14 59.9436 344.009 59.4676 343.748C58.9916 343.477 58.6136 343.085 58.3336 342.572C58.0536 342.049 57.8902 341.41 57.8436 340.654H55.9396V344H54.7076V336.496H55.9396V339.618H57.8576C57.9229 338.909 58.0956 338.316 58.3756 337.84C58.6649 337.355 59.0429 336.986 59.5096 336.734C59.9856 336.482 60.5362 336.356 61.1616 336.356C61.8056 336.356 62.3749 336.51 62.8696 336.818C63.3642 337.117 63.7516 337.555 64.0316 338.134C64.3116 338.703 64.4516 339.403 64.4516 340.234ZM59.1036 340.234C59.1036 340.859 59.1736 341.387 59.3136 341.816C59.4629 342.245 59.6869 342.572 59.9856 342.796C60.2842 343.011 60.6716 343.118 61.1476 343.118C61.6236 343.118 62.0109 343.011 62.3096 342.796C62.6082 342.572 62.8276 342.245 62.9676 341.816C63.1076 341.387 63.1776 340.859 63.1776 340.234C63.1776 339.609 63.1076 339.086 62.9676 338.666C62.8276 338.246 62.6082 337.929 62.3096 337.714C62.0109 337.499 61.6236 337.392 61.1476 337.392C60.6716 337.392 60.2842 337.499 59.9856 337.714C59.6869 337.929 59.4629 338.246 59.3136 338.666C59.1736 339.086 59.1036 339.609 59.1036 340.234ZM66.5087 344.07C66.3034 344.07 66.1307 344 65.9907 343.86C65.86 343.72 65.7947 343.547 65.7947 343.342C65.7947 343.137 65.86 342.969 65.9907 342.838C66.1307 342.698 66.3034 342.628 66.5087 342.628C66.7047 342.628 66.868 342.698 66.9987 342.838C67.1387 342.969 67.2087 343.137 67.2087 343.342C67.2087 343.547 67.1387 343.72 66.9987 343.86C66.868 344 66.7047 344.07 66.5087 344.07ZM66.5087 337.98C66.3034 337.98 66.1307 337.91 65.9907 337.77C65.86 337.63 65.7947 337.457 65.7947 337.252C65.7947 337.047 65.86 336.879 65.9907 336.748C66.1307 336.608 66.3034 336.538 66.5087 336.538C66.7047 336.538 66.868 336.608 66.9987 336.748C67.1387 336.879 67.2087 337.047 67.2087 337.252C67.2087 337.457 67.1387 337.63 66.9987 337.77C66.868 337.91 66.7047 337.98 66.5087 337.98ZM74.0685 336.496V339.618H78.1425V336.496H79.3745V344H78.1425V340.654H74.0685V344H72.8365V336.496H74.0685ZM84.5925 336.37C85.5072 336.37 86.1839 336.571 86.6225 336.972C87.0612 337.373 87.2805 338.013 87.2805 338.89V344H86.3845L86.1465 342.936H86.0905C85.8759 343.207 85.6519 343.435 85.4185 343.622C85.1945 343.799 84.9332 343.93 84.6345 344.014C84.3452 344.098 83.9905 344.14 83.5705 344.14C83.1225 344.14 82.7165 344.061 82.3525 343.902C81.9979 343.743 81.7179 343.501 81.5125 343.174C81.3072 342.838 81.2045 342.418 81.2045 341.914C81.2045 341.167 81.4985 340.593 82.0865 340.192C82.6745 339.781 83.5799 339.557 84.8025 339.52L86.0765 339.478V339.03C86.0765 338.405 85.9412 337.971 85.6705 337.728C85.3999 337.485 85.0172 337.364 84.5225 337.364C84.1305 337.364 83.7572 337.425 83.4025 337.546C83.0479 337.658 82.7165 337.789 82.4085 337.938L82.0305 337.014C82.3572 336.837 82.7445 336.687 83.1925 336.566C83.6405 336.435 84.1072 336.37 84.5925 336.37ZM84.9565 340.374C84.0232 340.411 83.3745 340.561 83.0105 340.822C82.6559 341.083 82.4785 341.452 82.4785 341.928C82.4785 342.348 82.6045 342.656 82.8565 342.852C83.1179 343.048 83.4492 343.146 83.8505 343.146C84.4852 343.146 85.0125 342.973 85.4325 342.628C85.8525 342.273 86.0625 341.732 86.0625 341.004V340.332L84.9565 340.374ZM95.6742 333.388C95.6369 333.855 95.5202 334.247 95.3242 334.564C95.1375 334.881 94.8575 335.119 94.4842 335.278C94.1109 335.437 93.6255 335.516 93.0282 335.516C92.4215 335.516 91.9315 335.437 91.5582 335.278C91.1942 335.119 90.9282 334.886 90.7602 334.578C90.5922 334.261 90.4895 333.864 90.4522 333.388H91.6002C91.6469 333.892 91.7775 334.233 91.9922 334.41C92.2162 334.578 92.5709 334.662 93.0562 334.662C93.4855 334.662 93.8215 334.573 94.0642 334.396C94.3162 334.209 94.4655 333.873 94.5122 333.388H95.6742ZM90.7602 341.074C90.7602 341.158 90.7555 341.279 90.7462 341.438C90.7462 341.587 90.7415 341.751 90.7322 341.928C90.7229 342.096 90.7135 342.259 90.7042 342.418C90.6949 342.567 90.6855 342.689 90.6762 342.782L94.6942 336.496H96.2062V344H95.0582V339.576C95.0582 339.427 95.0582 339.231 95.0582 338.988C95.0675 338.745 95.0769 338.507 95.0862 338.274C95.0955 338.031 95.1049 337.849 95.1142 337.728L91.1242 344H89.5982V336.496H90.7602V341.074ZM104.936 336.496V344H103.704V337.546H99.8263V344H98.5943V336.496H104.936ZM113.855 340.234C113.855 340.859 113.771 341.415 113.603 341.9C113.444 342.376 113.211 342.782 112.903 343.118C112.604 343.454 112.235 343.711 111.797 343.888C111.367 344.056 110.887 344.14 110.355 344.14C109.86 344.14 109.403 344.056 108.983 343.888C108.563 343.711 108.199 343.454 107.891 343.118C107.583 342.782 107.34 342.376 107.163 341.9C106.995 341.415 106.911 340.859 106.911 340.234C106.911 339.403 107.051 338.703 107.331 338.134C107.611 337.555 108.012 337.117 108.535 336.818C109.057 336.51 109.678 336.356 110.397 336.356C111.078 336.356 111.675 336.51 112.189 336.818C112.711 337.117 113.117 337.555 113.407 338.134C113.705 338.703 113.855 339.403 113.855 340.234ZM108.185 340.234C108.185 340.822 108.259 341.335 108.409 341.774C108.567 342.203 108.81 342.535 109.137 342.768C109.463 343.001 109.879 343.118 110.383 343.118C110.887 343.118 111.302 343.001 111.629 342.768C111.955 342.535 112.193 342.203 112.343 341.774C112.501 341.335 112.581 340.822 112.581 340.234C112.581 339.637 112.501 339.128 112.343 338.708C112.184 338.288 111.941 337.966 111.615 337.742C111.297 337.509 110.882 337.392 110.369 337.392C109.603 337.392 109.048 337.644 108.703 338.148C108.357 338.652 108.185 339.347 108.185 340.234ZM122.149 336.496V344H120.917V337.546H117.039V344H115.807V336.496H122.149ZM123.368 336.496H124.684L126.308 340.766C126.401 341.018 126.485 341.261 126.56 341.494C126.644 341.727 126.718 341.956 126.784 342.18C126.849 342.395 126.9 342.605 126.938 342.81H126.994C127.05 342.577 127.138 342.273 127.26 341.9C127.381 341.517 127.507 341.135 127.638 340.752L129.164 336.496H130.494L127.26 345.036C127.082 345.503 126.872 345.909 126.63 346.254C126.396 346.609 126.107 346.879 125.762 347.066C125.426 347.262 125.015 347.36 124.53 347.36C124.306 347.36 124.11 347.346 123.942 347.318C123.774 347.299 123.629 347.276 123.508 347.248V346.268C123.61 346.287 123.732 346.305 123.872 346.324C124.021 346.343 124.175 346.352 124.334 346.352C124.623 346.352 124.87 346.296 125.076 346.184C125.29 346.081 125.472 345.927 125.622 345.722C125.771 345.526 125.897 345.293 126 345.022L126.392 344.028L123.368 336.496ZM137.119 344H135.873V337.518H133.661C133.567 338.703 133.451 339.716 133.311 340.556C133.171 341.387 132.993 342.063 132.779 342.586C132.564 343.109 132.307 343.491 132.009 343.734C131.71 343.977 131.36 344.098 130.959 344.098C130.837 344.098 130.716 344.089 130.595 344.07C130.483 344.061 130.389 344.037 130.315 344V343.076C130.371 343.095 130.431 343.109 130.497 343.118C130.562 343.127 130.627 343.132 130.693 343.132C130.898 343.132 131.085 343.048 131.253 342.88C131.421 342.712 131.57 342.455 131.701 342.11C131.841 341.765 131.967 341.331 132.079 340.808C132.191 340.276 132.289 339.651 132.373 338.932C132.457 338.213 132.531 337.401 132.597 336.496H137.119V344ZM139.963 344H138.535L140.677 340.85C140.387 340.775 140.107 340.659 139.837 340.5C139.566 340.332 139.347 340.103 139.179 339.814C139.011 339.515 138.927 339.147 138.927 338.708C138.927 337.989 139.169 337.443 139.655 337.07C140.14 336.687 140.784 336.496 141.587 336.496H144.947V344H143.715V341.018H141.895L139.963 344ZM140.117 338.722C140.117 339.151 140.275 339.473 140.593 339.688C140.919 339.893 141.372 339.996 141.951 339.996H143.715V337.518H141.713C141.143 337.518 140.733 337.63 140.481 337.854C140.238 338.078 140.117 338.367 140.117 338.722ZM150.891 336.356C151.815 336.356 152.557 336.678 153.117 337.322C153.686 337.966 153.971 338.937 153.971 340.234C153.971 341.083 153.84 341.802 153.579 342.39C153.327 342.969 152.968 343.407 152.501 343.706C152.044 343.995 151.502 344.14 150.877 344.14C150.494 344.14 150.154 344.089 149.855 343.986C149.556 343.883 149.3 343.753 149.085 343.594C148.88 343.426 148.702 343.244 148.553 343.048H148.469C148.488 343.207 148.506 343.407 148.525 343.65C148.544 343.893 148.553 344.103 148.553 344.28V347.36H147.321V336.496H148.329L148.497 337.518H148.553C148.702 337.303 148.88 337.107 149.085 336.93C149.3 336.753 149.552 336.613 149.841 336.51C150.14 336.407 150.49 336.356 150.891 336.356ZM150.667 337.392C150.163 337.392 149.757 337.49 149.449 337.686C149.141 337.873 148.917 338.157 148.777 338.54C148.637 338.923 148.562 339.408 148.553 339.996V340.234C148.553 340.85 148.618 341.373 148.749 341.802C148.88 342.231 149.099 342.558 149.407 342.782C149.724 343.006 150.154 343.118 150.695 343.118C151.152 343.118 151.526 342.992 151.815 342.74C152.114 342.488 152.333 342.147 152.473 341.718C152.622 341.279 152.697 340.78 152.697 340.22C152.697 339.361 152.529 338.675 152.193 338.162C151.866 337.649 151.358 337.392 150.667 337.392ZM157.166 336.496V339.618H161.24V336.496H162.472V344H161.24V340.654H157.166V344H155.934V336.496H157.166ZM166.08 336.496V344H164.848V336.496H166.08ZM165.478 333.682C165.665 333.682 165.828 333.747 165.968 333.878C166.118 333.999 166.192 334.195 166.192 334.466C166.192 334.727 166.118 334.923 165.968 335.054C165.828 335.185 165.665 335.25 165.478 335.25C165.273 335.25 165.1 335.185 164.96 335.054C164.82 334.923 164.75 334.727 164.75 334.466C164.75 334.195 164.82 333.999 164.96 333.878C165.1 333.747 165.273 333.682 165.478 333.682ZM178.636 336.496V344H168.458V336.496H169.69V342.964H172.924V336.496H174.156V342.964H177.404V336.496H178.636ZM182.268 336.496V344H181.036V336.496H182.268ZM181.666 333.682C181.852 333.682 182.016 333.747 182.156 333.878C182.305 333.999 182.38 334.195 182.38 334.466C182.38 334.727 182.305 334.923 182.156 335.054C182.016 335.185 181.852 335.25 181.666 335.25C181.46 335.25 181.288 335.185 181.148 335.054C181.008 334.923 180.938 334.727 180.938 334.466C180.938 334.195 181.008 333.999 181.148 333.878C181.288 333.747 181.46 333.682 181.666 333.682ZM194.829 336.496V344H193.597V337.546H189.719V344H188.487V336.496H194.829ZM203.747 340.234C203.747 340.859 203.663 341.415 203.495 341.9C203.337 342.376 203.103 342.782 202.795 343.118C202.497 343.454 202.128 343.711 201.689 343.888C201.26 344.056 200.779 344.14 200.247 344.14C199.753 344.14 199.295 344.056 198.875 343.888C198.455 343.711 198.091 343.454 197.783 343.118C197.475 342.782 197.233 342.376 197.055 341.9C196.887 341.415 196.803 340.859 196.803 340.234C196.803 339.403 196.943 338.703 197.223 338.134C197.503 337.555 197.905 337.117 198.427 336.818C198.95 336.51 199.571 336.356 200.289 336.356C200.971 336.356 201.568 336.51 202.081 336.818C202.604 337.117 203.01 337.555 203.299 338.134C203.598 338.703 203.747 339.403 203.747 340.234ZM198.077 340.234C198.077 340.822 198.152 341.335 198.301 341.774C198.46 342.203 198.703 342.535 199.029 342.768C199.356 343.001 199.771 343.118 200.275 343.118C200.779 343.118 201.195 343.001 201.521 342.768C201.848 342.535 202.086 342.203 202.235 341.774C202.394 341.335 202.473 340.822 202.473 340.234C202.473 339.637 202.394 339.128 202.235 338.708C202.077 338.288 201.834 337.966 201.507 337.742C201.19 337.509 200.775 337.392 200.261 337.392C199.496 337.392 198.941 337.644 198.595 338.148C198.25 338.652 198.077 339.347 198.077 340.234ZM207.674 336.356C208.243 336.356 208.738 336.435 209.158 336.594C209.578 336.743 209.904 336.967 210.138 337.266C210.371 337.555 210.488 337.91 210.488 338.33C210.488 338.787 210.362 339.151 210.11 339.422C209.858 339.683 209.512 339.875 209.074 339.996V340.052C209.372 340.136 209.648 340.253 209.9 340.402C210.152 340.551 210.352 340.747 210.502 340.99C210.66 341.233 210.74 341.545 210.74 341.928C210.74 342.339 210.623 342.712 210.39 343.048C210.166 343.384 209.816 343.65 209.34 343.846C208.873 344.042 208.271 344.14 207.534 344.14C207.179 344.14 206.838 344.121 206.512 344.084C206.194 344.047 205.905 343.991 205.644 343.916C205.392 343.841 205.168 343.753 204.972 343.65V342.544C205.289 342.693 205.662 342.829 206.092 342.95C206.53 343.071 207.006 343.132 207.52 343.132C207.893 343.132 208.229 343.09 208.528 343.006C208.836 342.922 209.078 342.791 209.256 342.614C209.433 342.427 209.522 342.175 209.522 341.858C209.522 341.569 209.442 341.335 209.284 341.158C209.125 340.971 208.887 340.831 208.57 340.738C208.262 340.645 207.865 340.598 207.38 340.598H206.372V339.59H207.184C207.828 339.59 208.341 339.506 208.724 339.338C209.116 339.161 209.312 338.862 209.312 338.442C209.312 338.087 209.162 337.821 208.864 337.644C208.574 337.467 208.154 337.378 207.604 337.378C207.193 337.378 206.829 337.42 206.512 337.504C206.204 337.579 205.863 337.695 205.49 337.854L205.056 336.874C205.457 336.697 205.877 336.566 206.316 336.482C206.754 336.398 207.207 336.356 207.674 336.356ZM213.725 341.074C213.725 341.158 213.72 341.279 213.711 341.438C213.711 341.587 213.706 341.751 213.697 341.928C213.688 342.096 213.678 342.259 213.669 342.418C213.66 342.567 213.65 342.689 213.641 342.782L217.659 336.496H219.171V344H218.023V339.576C218.023 339.427 218.023 339.231 218.023 338.988C218.032 338.745 218.042 338.507 218.051 338.274C218.06 338.031 218.07 337.849 218.079 337.728L214.089 344H212.563V336.496H213.725V341.074ZM228.965 346.604H227.761V344H221.559V336.496H222.791V342.964H226.669V336.496H227.901V342.978H228.965V346.604ZM231.637 336.496V344H230.405V336.496H231.637ZM231.035 333.682C231.222 333.682 231.385 333.747 231.525 333.878C231.674 333.999 231.749 334.195 231.749 334.466C231.749 334.727 231.674 334.923 231.525 335.054C231.385 335.185 231.222 335.25 231.035 335.25C230.83 335.25 230.657 335.185 230.517 335.054C230.377 334.923 230.307 334.727 230.307 334.466C230.307 334.195 230.377 333.999 230.517 333.878C230.657 333.747 230.83 333.682 231.035 333.682ZM235.246 344H234.014V336.496H235.246V344ZM232.67 334.466C232.67 334.223 232.736 334.051 232.866 333.948C232.997 333.836 233.151 333.78 233.328 333.78C233.506 333.78 233.66 333.836 233.79 333.948C233.921 334.051 233.986 334.223 233.986 334.466C233.986 334.699 233.921 334.877 233.79 334.998C233.66 335.11 233.506 335.166 233.328 335.166C233.151 335.166 232.997 335.11 232.866 334.998C232.736 334.877 232.67 334.699 232.67 334.466ZM235.302 334.466C235.302 334.223 235.363 334.051 235.484 333.948C235.615 333.836 235.769 333.78 235.946 333.78C236.124 333.78 236.278 333.836 236.408 333.948C236.539 334.051 236.604 334.223 236.604 334.466C236.604 334.699 236.539 334.877 236.408 334.998C236.278 335.11 236.124 335.166 235.946 335.166C235.769 335.166 235.615 335.11 235.484 334.998C235.363 334.877 235.302 334.699 235.302 334.466ZM249.515 336.496V344H248.409V339.212C248.409 339.016 248.414 338.811 248.423 338.596C248.442 338.381 248.461 338.171 248.479 337.966H248.437L245.987 344H244.951L242.571 337.966H242.529C242.548 338.171 242.557 338.381 242.557 338.596C242.567 338.811 242.571 339.03 242.571 339.254V344H241.465V336.496H243.103L245.469 342.53L247.877 336.496H249.515ZM254.809 336.356C255.453 336.356 256.003 336.496 256.461 336.776C256.927 337.056 257.282 337.453 257.525 337.966C257.777 338.47 257.903 339.063 257.903 339.744V340.486H252.765C252.783 341.335 252.998 341.984 253.409 342.432C253.829 342.871 254.412 343.09 255.159 343.09C255.635 343.09 256.055 343.048 256.419 342.964C256.792 342.871 257.175 342.74 257.567 342.572V343.65C257.184 343.818 256.806 343.939 256.433 344.014C256.059 344.098 255.616 344.14 255.103 344.14C254.393 344.14 253.763 343.995 253.213 343.706C252.671 343.417 252.247 342.987 251.939 342.418C251.64 341.839 251.491 341.135 251.491 340.304C251.491 339.483 251.626 338.778 251.897 338.19C252.177 337.602 252.564 337.149 253.059 336.832C253.563 336.515 254.146 336.356 254.809 336.356ZM254.795 337.364C254.207 337.364 253.74 337.555 253.395 337.938C253.059 338.311 252.858 338.834 252.793 339.506H256.615C256.615 339.077 256.549 338.703 256.419 338.386C256.288 338.069 256.087 337.821 255.817 337.644C255.555 337.457 255.215 337.364 254.795 337.364ZM261.045 336.496V339.618H265.119V336.496H266.351V344H265.119V340.654H261.045V344H259.813V336.496H261.045ZM278.471 340.234C278.471 341.065 278.336 341.774 278.065 342.362C277.794 342.941 277.412 343.384 276.917 343.692C276.422 343.991 275.834 344.14 275.153 344.14C274.518 344.14 273.963 344.009 273.487 343.748C273.011 343.477 272.633 343.085 272.353 342.572C272.073 342.049 271.91 341.41 271.863 340.654H269.959V344H268.727V336.496H269.959V339.618H271.877C271.942 338.909 272.115 338.316 272.395 337.84C272.684 337.355 273.062 336.986 273.529 336.734C274.005 336.482 274.556 336.356 275.181 336.356C275.825 336.356 276.394 336.51 276.889 336.818C277.384 337.117 277.771 337.555 278.051 338.134C278.331 338.703 278.471 339.403 278.471 340.234ZM273.123 340.234C273.123 340.859 273.193 341.387 273.333 341.816C273.482 342.245 273.706 342.572 274.005 342.796C274.304 343.011 274.691 343.118 275.167 343.118C275.643 343.118 276.03 343.011 276.329 342.796C276.628 342.572 276.847 342.245 276.987 341.816C277.127 341.387 277.197 340.859 277.197 340.234C277.197 339.609 277.127 339.086 276.987 338.666C276.847 338.246 276.628 337.929 276.329 337.714C276.03 337.499 275.643 337.392 275.167 337.392C274.691 337.392 274.304 337.499 274.005 337.714C273.706 337.929 273.482 338.246 273.333 338.666C273.193 339.086 273.123 339.609 273.123 340.234ZM37.146 365H25.358V355.004H26.618V363.88H30.608V355.004H31.868V363.88H35.872V355.004H37.146V365ZM44.8895 358.532H42.4395V365H41.2215V358.532H38.7995V357.496H44.8895V358.532ZM49.2097 357.37C50.1244 357.37 50.8011 357.571 51.2397 357.972C51.6784 358.373 51.8977 359.013 51.8977 359.89V365H51.0017L50.7637 363.936H50.7077C50.4931 364.207 50.2691 364.435 50.0357 364.622C49.8117 364.799 49.5504 364.93 49.2517 365.014C48.9624 365.098 48.6077 365.14 48.1877 365.14C47.7397 365.14 47.3337 365.061 46.9697 364.902C46.6151 364.743 46.3351 364.501 46.1297 364.174C45.9244 363.838 45.8217 363.418 45.8217 362.914C45.8217 362.167 46.1157 361.593 46.7037 361.192C47.2917 360.781 48.1971 360.557 49.4197 360.52L50.6937 360.478V360.03C50.6937 359.405 50.5584 358.971 50.2877 358.728C50.0171 358.485 49.6344 358.364 49.1397 358.364C48.7477 358.364 48.3744 358.425 48.0197 358.546C47.6651 358.658 47.3337 358.789 47.0257 358.938L46.6477 358.014C46.9744 357.837 47.3617 357.687 47.8097 357.566C48.2577 357.435 48.7244 357.37 49.2097 357.37ZM49.5737 361.374C48.6404 361.411 47.9917 361.561 47.6277 361.822C47.2731 362.083 47.0957 362.452 47.0957 362.928C47.0957 363.348 47.2217 363.656 47.4737 363.852C47.7351 364.048 48.0664 364.146 48.4677 364.146C49.1024 364.146 49.6297 363.973 50.0497 363.628C50.4697 363.273 50.6797 362.732 50.6797 362.004V361.332L49.5737 361.374ZM59.3954 358.532H56.9454V365H55.7274V358.532H53.3054V357.496H59.3954V358.532ZM60.9716 365.07C60.7663 365.07 60.5936 365 60.4536 364.86C60.3229 364.72 60.2576 364.547 60.2576 364.342C60.2576 364.137 60.3229 363.969 60.4536 363.838C60.5936 363.698 60.7663 363.628 60.9716 363.628C61.1676 363.628 61.3309 363.698 61.4616 363.838C61.6016 363.969 61.6716 364.137 61.6716 364.342C61.6716 364.547 61.6016 364.72 61.4616 364.86C61.3309 365 61.1676 365.07 60.9716 365.07ZM60.9716 358.98C60.7663 358.98 60.5936 358.91 60.4536 358.77C60.3229 358.63 60.2576 358.457 60.2576 358.252C60.2576 358.047 60.3229 357.879 60.4536 357.748C60.5936 357.608 60.7663 357.538 60.9716 357.538C61.1676 357.538 61.3309 357.608 61.4616 357.748C61.6016 357.879 61.6716 358.047 61.6716 358.252C61.6716 358.457 61.6016 358.63 61.4616 358.77C61.3309 358.91 61.1676 358.98 60.9716 358.98ZM66.5434 355.844V354.962H68.9234V365H67.9294V355.844H66.5434ZM81.5711 357.496V365H80.3391V358.546H76.4611V365H75.2291V357.496H81.5711ZM87.5354 357.356C88.4594 357.356 89.2014 357.678 89.7614 358.322C90.3307 358.966 90.6154 359.937 90.6154 361.234C90.6154 362.083 90.4847 362.802 90.2234 363.39C89.9714 363.969 89.6121 364.407 89.1454 364.706C88.6881 364.995 88.1467 365.14 87.5214 365.14C87.1387 365.14 86.7981 365.089 86.4994 364.986C86.2007 364.883 85.9441 364.753 85.7294 364.594C85.5241 364.426 85.3467 364.244 85.1974 364.048H85.1134C85.1321 364.207 85.1507 364.407 85.1694 364.65C85.1881 364.893 85.1974 365.103 85.1974 365.28V368.36H83.9654V357.496H84.9734L85.1414 358.518H85.1974C85.3467 358.303 85.5241 358.107 85.7294 357.93C85.9441 357.753 86.1961 357.613 86.4854 357.51C86.7841 357.407 87.1341 357.356 87.5354 357.356ZM87.3114 358.392C86.8074 358.392 86.4014 358.49 86.0934 358.686C85.7854 358.873 85.5614 359.157 85.4214 359.54C85.2814 359.923 85.2067 360.408 85.1974 360.996V361.234C85.1974 361.85 85.2627 362.373 85.3934 362.802C85.5241 363.231 85.7434 363.558 86.0514 363.782C86.3687 364.006 86.7981 364.118 87.3394 364.118C87.7967 364.118 88.1701 363.992 88.4594 363.74C88.7581 363.488 88.9774 363.147 89.1174 362.718C89.2667 362.279 89.3414 361.78 89.3414 361.22C89.3414 360.361 89.1734 359.675 88.8374 359.162C88.5107 358.649 88.0021 358.392 87.3114 358.392ZM99.1027 361.234C99.1027 361.859 99.0187 362.415 98.8507 362.9C98.692 363.376 98.4587 363.782 98.1507 364.118C97.852 364.454 97.4833 364.711 97.0447 364.888C96.6153 365.056 96.1347 365.14 95.6027 365.14C95.108 365.14 94.6507 365.056 94.2307 364.888C93.8107 364.711 93.4467 364.454 93.1387 364.118C92.8307 363.782 92.588 363.376 92.4107 362.9C92.2427 362.415 92.1587 361.859 92.1587 361.234C92.1587 360.403 92.2987 359.703 92.5787 359.134C92.8587 358.555 93.26 358.117 93.7827 357.818C94.3053 357.51 94.926 357.356 95.6447 357.356C96.326 357.356 96.9233 357.51 97.4367 357.818C97.9593 358.117 98.3653 358.555 98.6547 359.134C98.9533 359.703 99.1027 360.403 99.1027 361.234ZM93.4327 361.234C93.4327 361.822 93.5073 362.335 93.6567 362.774C93.8153 363.203 94.058 363.535 94.3847 363.768C94.7113 364.001 95.1267 364.118 95.6307 364.118C96.1347 364.118 96.55 364.001 96.8767 363.768C97.2033 363.535 97.4413 363.203 97.5907 362.774C97.7493 362.335 97.8287 361.822 97.8287 361.234C97.8287 360.637 97.7493 360.128 97.5907 359.708C97.432 359.288 97.1893 358.966 96.8627 358.742C96.5453 358.509 96.13 358.392 95.6167 358.392C94.8513 358.392 94.296 358.644 93.9507 359.148C93.6053 359.652 93.4327 360.347 93.4327 361.234ZM106.627 357.496V363.964H107.719V367.604H106.529V365H101.307V367.604H100.131V363.964H100.733C101.163 363.367 101.517 362.718 101.797 362.018C102.087 361.309 102.301 360.571 102.441 359.806C102.591 359.031 102.67 358.261 102.679 357.496H106.627ZM103.771 358.462C103.734 359.097 103.636 359.755 103.477 360.436C103.319 361.108 103.113 361.752 102.861 362.368C102.619 362.984 102.334 363.516 102.007 363.964H105.437V358.462H103.771ZM112.032 357.37C112.947 357.37 113.623 357.571 114.062 357.972C114.501 358.373 114.72 359.013 114.72 359.89V365H113.824L113.586 363.936H113.53C113.315 364.207 113.091 364.435 112.858 364.622C112.634 364.799 112.373 364.93 112.074 365.014C111.785 365.098 111.43 365.14 111.01 365.14C110.562 365.14 110.156 365.061 109.792 364.902C109.437 364.743 109.157 364.501 108.952 364.174C108.747 363.838 108.644 363.418 108.644 362.914C108.644 362.167 108.938 361.593 109.526 361.192C110.114 360.781 111.019 360.557 112.242 360.52L113.516 360.478V360.03C113.516 359.405 113.381 358.971 113.11 358.728C112.839 358.485 112.457 358.364 111.962 358.364C111.57 358.364 111.197 358.425 110.842 358.546C110.487 358.658 110.156 358.789 109.848 358.938L109.47 358.014C109.797 357.837 110.184 357.687 110.632 357.566C111.08 357.435 111.547 357.37 112.032 357.37ZM112.396 361.374C111.463 361.411 110.814 361.561 110.45 361.822C110.095 362.083 109.918 362.452 109.918 362.928C109.918 363.348 110.044 363.656 110.296 363.852C110.557 364.048 110.889 364.146 111.29 364.146C111.925 364.146 112.452 363.973 112.872 363.628C113.292 363.273 113.502 362.732 113.502 362.004V361.332L112.396 361.374ZM123.072 359.386C123.072 359.853 122.932 360.217 122.652 360.478C122.372 360.739 122.012 360.917 121.574 361.01V361.066C122.04 361.131 122.446 361.299 122.792 361.57C123.137 361.831 123.31 362.242 123.31 362.802C123.31 363.119 123.249 363.413 123.128 363.684C123.016 363.955 122.838 364.188 122.596 364.384C122.353 364.58 122.04 364.734 121.658 364.846C121.275 364.949 120.813 365 120.272 365H117.038V357.496H120.258C120.79 357.496 121.266 357.557 121.686 357.678C122.115 357.79 122.451 357.986 122.694 358.266C122.946 358.537 123.072 358.91 123.072 359.386ZM122.036 362.802C122.036 362.373 121.872 362.065 121.546 361.878C121.219 361.691 120.738 361.598 120.104 361.598H118.27V364.006H120.132C120.748 364.006 121.219 363.917 121.546 363.74C121.872 363.553 122.036 363.241 122.036 362.802ZM121.826 359.54C121.826 359.185 121.695 358.929 121.434 358.77C121.182 358.602 120.766 358.518 120.188 358.518H118.27V360.576H119.964C120.57 360.576 121.032 360.492 121.35 360.324C121.667 360.156 121.826 359.895 121.826 359.54ZM128.002 357.356C128.646 357.356 129.197 357.496 129.654 357.776C130.121 358.056 130.475 358.453 130.718 358.966C130.97 359.47 131.096 360.063 131.096 360.744V361.486H125.958C125.977 362.335 126.191 362.984 126.602 363.432C127.022 363.871 127.605 364.09 128.352 364.09C128.828 364.09 129.248 364.048 129.612 363.964C129.985 363.871 130.368 363.74 130.76 363.572V364.65C130.377 364.818 129.999 364.939 129.626 365.014C129.253 365.098 128.809 365.14 128.296 365.14C127.587 365.14 126.957 364.995 126.406 364.706C125.865 364.417 125.44 363.987 125.132 363.418C124.833 362.839 124.684 362.135 124.684 361.304C124.684 360.483 124.819 359.778 125.09 359.19C125.37 358.602 125.757 358.149 126.252 357.832C126.756 357.515 127.339 357.356 128.002 357.356ZM127.988 358.364C127.4 358.364 126.933 358.555 126.588 358.938C126.252 359.311 126.051 359.834 125.986 360.506H129.808C129.808 360.077 129.743 359.703 129.612 359.386C129.481 359.069 129.281 358.821 129.01 358.644C128.749 358.457 128.408 358.364 127.988 358.364ZM140.412 367.604H139.208V365H133.006V357.496H134.238V363.964H138.116V357.496H139.348V363.978H140.412V367.604ZM145.31 360.576C145.963 360.576 146.505 360.655 146.934 360.814C147.363 360.973 147.685 361.211 147.9 361.528C148.124 361.836 148.236 362.228 148.236 362.704C148.236 363.171 148.129 363.577 147.914 363.922C147.709 364.267 147.387 364.533 146.948 364.72C146.509 364.907 145.945 365 145.254 365H141.852V357.496H143.084V360.576H145.31ZM147.004 362.774C147.004 362.317 146.841 362.009 146.514 361.85C146.197 361.682 145.749 361.598 145.17 361.598H143.084V364.006H145.198C145.721 364.006 146.15 363.913 146.486 363.726C146.831 363.539 147.004 363.222 147.004 362.774ZM150.991 363.376L149.535 367.044H148.863L149.899 363.376H150.991ZM155.67 355.844V354.962H158.05V365H157.056V355.844H155.67ZM170.698 357.496V365H169.466V358.546H165.588V365H164.356V357.496H170.698ZM175.99 357.356C176.634 357.356 177.185 357.496 177.642 357.776C178.109 358.056 178.464 358.453 178.706 358.966C178.958 359.47 179.084 360.063 179.084 360.744V361.486H173.946C173.965 362.335 174.18 362.984 174.59 363.432C175.01 363.871 175.594 364.09 176.34 364.09C176.816 364.09 177.236 364.048 177.6 363.964C177.974 363.871 178.356 363.74 178.748 363.572V364.65C178.366 364.818 177.988 364.939 177.614 365.014C177.241 365.098 176.798 365.14 176.284 365.14C175.575 365.14 174.945 364.995 174.394 364.706C173.853 364.417 173.428 363.987 173.12 363.418C172.822 362.839 172.672 362.135 172.672 361.304C172.672 360.483 172.808 359.778 173.078 359.19C173.358 358.602 173.746 358.149 174.24 357.832C174.744 357.515 175.328 357.356 175.99 357.356ZM175.976 358.364C175.388 358.364 174.922 358.555 174.576 358.938C174.24 359.311 174.04 359.834 173.974 360.506H177.796C177.796 360.077 177.731 359.703 177.6 359.386C177.47 359.069 177.269 358.821 176.998 358.644C176.737 358.457 176.396 358.364 175.976 358.364ZM185.433 357.496H186.777L183.571 361.108L187.043 365H185.615L182.227 361.192V365H180.995V357.496H182.227V361.136L185.433 357.496ZM191.247 357.37C192.162 357.37 192.838 357.571 193.277 357.972C193.716 358.373 193.935 359.013 193.935 359.89V365H193.039L192.801 363.936H192.745C192.53 364.207 192.306 364.435 192.073 364.622C191.849 364.799 191.588 364.93 191.289 365.014C191 365.098 190.645 365.14 190.225 365.14C189.777 365.14 189.371 365.061 189.007 364.902C188.652 364.743 188.372 364.501 188.167 364.174C187.962 363.838 187.859 363.418 187.859 362.914C187.859 362.167 188.153 361.593 188.741 361.192C189.329 360.781 190.234 360.557 191.457 360.52L192.731 360.478V360.03C192.731 359.405 192.596 358.971 192.325 358.728C192.054 358.485 191.672 358.364 191.177 358.364C190.785 358.364 190.412 358.425 190.057 358.546C189.702 358.658 189.371 358.789 189.063 358.938L188.685 358.014C189.012 357.837 189.399 357.687 189.847 357.566C190.295 357.435 190.762 357.37 191.247 357.37ZM191.611 361.374C190.678 361.411 190.029 361.561 189.665 361.822C189.31 362.083 189.133 362.452 189.133 362.928C189.133 363.348 189.259 363.656 189.511 363.852C189.772 364.048 190.104 364.146 190.505 364.146C191.14 364.146 191.667 363.973 192.087 363.628C192.507 363.273 192.717 362.732 192.717 362.004V361.332L191.611 361.374ZM199.823 357.356C200.747 357.356 201.489 357.678 202.049 358.322C202.618 358.966 202.903 359.937 202.903 361.234C202.903 362.083 202.772 362.802 202.511 363.39C202.258 363.969 201.899 364.407 201.433 364.706C200.975 364.995 200.434 365.14 199.809 365.14C199.426 365.14 199.085 365.089 198.787 364.986C198.488 364.883 198.231 364.753 198.017 364.594C197.811 364.426 197.634 364.244 197.485 364.048H197.401C197.419 364.207 197.438 364.407 197.457 364.65C197.475 364.893 197.485 365.103 197.485 365.28V368.36H196.253V357.496H197.261L197.429 358.518H197.485C197.634 358.303 197.811 358.107 198.017 357.93C198.231 357.753 198.483 357.613 198.773 357.51C199.071 357.407 199.421 357.356 199.823 357.356ZM199.599 358.392C199.095 358.392 198.689 358.49 198.381 358.686C198.073 358.873 197.849 359.157 197.709 359.54C197.569 359.923 197.494 360.408 197.485 360.996V361.234C197.485 361.85 197.55 362.373 197.681 362.802C197.811 363.231 198.031 363.558 198.339 363.782C198.656 364.006 199.085 364.118 199.627 364.118C200.084 364.118 200.457 363.992 200.747 363.74C201.045 363.488 201.265 363.147 201.405 362.718C201.554 362.279 201.629 361.78 201.629 361.22C201.629 360.361 201.461 359.675 201.125 359.162C200.798 358.649 200.289 358.392 199.599 358.392ZM205.692 363.376L204.236 367.044H203.564L204.6 363.376H205.692ZM210.372 355.844V354.962H212.752V365H211.758V355.844H210.372ZM225.399 357.496V365H224.167V358.546H220.289V365H219.057V357.496H225.399ZM234.318 361.234C234.318 361.859 234.234 362.415 234.066 362.9C233.907 363.376 233.674 363.782 233.366 364.118C233.067 364.454 232.698 364.711 232.26 364.888C231.83 365.056 231.35 365.14 230.818 365.14C230.323 365.14 229.866 365.056 229.446 364.888C229.026 364.711 228.662 364.454 228.354 364.118C228.046 363.782 227.803 363.376 227.626 362.9C227.458 362.415 227.374 361.859 227.374 361.234C227.374 360.403 227.514 359.703 227.794 359.134C228.074 358.555 228.475 358.117 228.998 357.818C229.52 357.51 230.141 357.356 230.86 357.356C231.541 357.356 232.138 357.51 232.652 357.818C233.174 358.117 233.58 358.555 233.87 359.134C234.168 359.703 234.318 360.403 234.318 361.234ZM228.648 361.234C228.648 361.822 228.722 362.335 228.872 362.774C229.03 363.203 229.273 363.535 229.6 363.768C229.926 364.001 230.342 364.118 230.846 364.118C231.35 364.118 231.765 364.001 232.092 363.768C232.418 363.535 232.656 363.203 232.806 362.774C232.964 362.335 233.044 361.822 233.044 361.234C233.044 360.637 232.964 360.128 232.806 359.708C232.647 359.288 232.404 358.966 232.078 358.742C231.76 358.509 231.345 358.392 230.832 358.392C230.066 358.392 229.511 358.644 229.166 359.148C228.82 359.652 228.648 360.347 228.648 361.234ZM244.32 357.496V365H243.214V360.212C243.214 360.016 243.219 359.811 243.228 359.596C243.247 359.381 243.265 359.171 243.284 358.966H243.242L240.792 365H239.756L237.376 358.966H237.334C237.353 359.171 237.362 359.381 237.362 359.596C237.371 359.811 237.376 360.03 237.376 360.254V365H236.27V357.496H237.908L240.274 363.53L242.682 357.496H244.32ZM247.947 357.496V365H246.715V357.496H247.947ZM247.345 354.682C247.532 354.682 247.695 354.747 247.835 354.878C247.985 354.999 248.059 355.195 248.059 355.466C248.059 355.727 247.985 355.923 247.835 356.054C247.695 356.185 247.532 356.25 247.345 356.25C247.14 356.25 246.967 356.185 246.827 356.054C246.687 355.923 246.617 355.727 246.617 355.466C246.617 355.195 246.687 354.999 246.827 354.878C246.967 354.747 247.14 354.682 247.345 354.682ZM251.403 360.226C251.403 360.665 251.524 360.991 251.767 361.206C252.019 361.411 252.378 361.514 252.845 361.514C253.311 361.514 253.736 361.444 254.119 361.304C254.501 361.155 254.893 360.959 255.295 360.716V357.496H256.527V365H255.295V361.654C254.875 361.925 254.459 362.139 254.049 362.298C253.647 362.447 253.162 362.522 252.593 362.522C251.827 362.522 251.23 362.321 250.801 361.92C250.381 361.519 250.171 360.982 250.171 360.31V357.496H251.403V360.226ZM260.143 357.496V360.618H264.217V357.496H265.449V365H264.217V361.654H260.143V365H258.911V357.496H260.143ZM268.987 362.074C268.987 362.158 268.982 362.279 268.973 362.438C268.973 362.587 268.968 362.751 268.959 362.928C268.949 363.096 268.94 363.259 268.931 363.418C268.921 363.567 268.912 363.689 268.903 363.782L272.921 357.496H274.433V365H273.285V360.576C273.285 360.427 273.285 360.231 273.285 359.988C273.294 359.745 273.303 359.507 273.313 359.274C273.322 359.031 273.331 358.849 273.341 358.728L269.351 365H267.825V357.496H268.987V362.074ZM281.259 357.496H282.603L279.397 361.108L282.869 365H281.441L278.053 361.192V365H276.821V357.496H278.053V361.136L281.259 357.496ZM31.532 378.496V386H30.3V379.546H26.422V386H25.19V378.496H31.532ZM36.8243 378.356C37.4683 378.356 38.019 378.496 38.4763 378.776C38.943 379.056 39.2977 379.453 39.5403 379.966C39.7923 380.47 39.9183 381.063 39.9183 381.744V382.486H34.7803C34.799 383.335 35.0137 383.984 35.4243 384.432C35.8443 384.871 36.4277 385.09 37.1743 385.09C37.6503 385.09 38.0703 385.048 38.4343 384.964C38.8077 384.871 39.1903 384.74 39.5823 384.572V385.65C39.1997 385.818 38.8217 385.939 38.4483 386.014C38.075 386.098 37.6317 386.14 37.1183 386.14C36.409 386.14 35.779 385.995 35.2283 385.706C34.687 385.417 34.2623 384.987 33.9543 384.418C33.6557 383.839 33.5063 383.135 33.5063 382.304C33.5063 381.483 33.6417 380.778 33.9123 380.19C34.1923 379.602 34.5797 379.149 35.0743 378.832C35.5783 378.515 36.1617 378.356 36.8243 378.356ZM36.8103 379.364C36.2223 379.364 35.7557 379.555 35.4103 379.938C35.0743 380.311 34.8737 380.834 34.8083 381.506H38.6303C38.6303 381.077 38.565 380.703 38.4343 380.386C38.3037 380.069 38.103 379.821 37.8323 379.644C37.571 379.457 37.2303 379.364 36.8103 379.364ZM46.2667 378.496H47.6107L44.4047 382.108L47.8767 386H46.4487L43.0607 382.192V386H41.8287V378.496H43.0607V382.136L46.2667 378.496ZM52.0808 378.37C52.9955 378.37 53.6722 378.571 54.1108 378.972C54.5495 379.373 54.7688 380.013 54.7688 380.89V386H53.8728L53.6348 384.936H53.5788C53.3642 385.207 53.1402 385.435 52.9068 385.622C52.6828 385.799 52.4215 385.93 52.1228 386.014C51.8335 386.098 51.4788 386.14 51.0588 386.14C50.6108 386.14 50.2048 386.061 49.8408 385.902C49.4862 385.743 49.2062 385.501 49.0008 385.174C48.7955 384.838 48.6928 384.418 48.6928 383.914C48.6928 383.167 48.9868 382.593 49.5748 382.192C50.1628 381.781 51.0682 381.557 52.2908 381.52L53.5648 381.478V381.03C53.5648 380.405 53.4295 379.971 53.1588 379.728C52.8882 379.485 52.5055 379.364 52.0108 379.364C51.6188 379.364 51.2455 379.425 50.8908 379.546C50.5362 379.658 50.2048 379.789 49.8968 379.938L49.5188 379.014C49.8455 378.837 50.2328 378.687 50.6808 378.566C51.1288 378.435 51.5955 378.37 52.0808 378.37ZM52.4448 382.374C51.5115 382.411 50.8628 382.561 50.4988 382.822C50.1442 383.083 49.9668 383.452 49.9668 383.928C49.9668 384.348 50.0928 384.656 50.3448 384.852C50.6062 385.048 50.9375 385.146 51.3388 385.146C51.9735 385.146 52.5008 384.973 52.9208 384.628C53.3408 384.273 53.5508 383.732 53.5508 383.004V382.332L52.4448 382.374ZM60.6565 378.356C61.5805 378.356 62.3225 378.678 62.8825 379.322C63.4518 379.966 63.7365 380.937 63.7365 382.234C63.7365 383.083 63.6058 383.802 63.3445 384.39C63.0925 384.969 62.7332 385.407 62.2665 385.706C61.8092 385.995 61.2678 386.14 60.6425 386.14C60.2598 386.14 59.9192 386.089 59.6205 385.986C59.3218 385.883 59.0652 385.753 58.8505 385.594C58.6452 385.426 58.4678 385.244 58.3185 385.048H58.2345C58.2532 385.207 58.2718 385.407 58.2905 385.65C58.3092 385.893 58.3185 386.103 58.3185 386.28V389.36H57.0865V378.496H58.0945L58.2625 379.518H58.3185C58.4678 379.303 58.6452 379.107 58.8505 378.93C59.0652 378.753 59.3172 378.613 59.6065 378.51C59.9052 378.407 60.2552 378.356 60.6565 378.356ZM60.4325 379.392C59.9285 379.392 59.5225 379.49 59.2145 379.686C58.9065 379.873 58.6825 380.157 58.5425 380.54C58.4025 380.923 58.3278 381.408 58.3185 381.996V382.234C58.3185 382.85 58.3838 383.373 58.5145 383.802C58.6452 384.231 58.8645 384.558 59.1725 384.782C59.4898 385.006 59.9192 385.118 60.4605 385.118C60.9178 385.118 61.2912 384.992 61.5805 384.74C61.8792 384.488 62.0985 384.147 62.2385 383.718C62.3878 383.279 62.4625 382.78 62.4625 382.22C62.4625 381.361 62.2945 380.675 61.9585 380.162C61.6318 379.649 61.1232 379.392 60.4325 379.392ZM66.1618 386H64.7338L66.8758 382.85C66.5864 382.775 66.3064 382.659 66.0358 382.5C65.7651 382.332 65.5458 382.103 65.3778 381.814C65.2098 381.515 65.1258 381.147 65.1258 380.708C65.1258 379.989 65.3684 379.443 65.8538 379.07C66.3391 378.687 66.9831 378.496 67.7858 378.496H71.1458V386H69.9138V383.018H68.0938L66.1618 386ZM66.3158 380.722C66.3158 381.151 66.4744 381.473 66.7918 381.688C67.1184 381.893 67.5711 381.996 68.1498 381.996H69.9138V379.518H67.9118C67.3424 379.518 66.9318 379.63 66.6798 379.854C66.4371 380.078 66.3158 380.367 66.3158 380.722ZM25.358 407V397.004H32.862V407H31.616V398.11H26.618V407H25.358ZM41.9542 403.234C41.9542 403.859 41.8702 404.415 41.7022 404.9C41.5436 405.376 41.3102 405.782 41.0022 406.118C40.7036 406.454 40.3349 406.711 39.8962 406.888C39.4669 407.056 38.9862 407.14 38.4542 407.14C37.9596 407.14 37.5022 407.056 37.0822 406.888C36.6622 406.711 36.2982 406.454 35.9902 406.118C35.6822 405.782 35.4396 405.376 35.2622 404.9C35.0942 404.415 35.0102 403.859 35.0102 403.234C35.0102 402.403 35.1502 401.703 35.4302 401.134C35.7102 400.555 36.1116 400.117 36.6342 399.818C37.1569 399.51 37.7776 399.356 38.4962 399.356C39.1776 399.356 39.7749 399.51 40.2882 399.818C40.8109 400.117 41.2169 400.555 41.5062 401.134C41.8049 401.703 41.9542 402.403 41.9542 403.234ZM36.2842 403.234C36.2842 403.822 36.3589 404.335 36.5082 404.774C36.6669 405.203 36.9096 405.535 37.2362 405.768C37.5629 406.001 37.9782 406.118 38.4822 406.118C38.9862 406.118 39.4016 406.001 39.7282 405.768C40.0549 405.535 40.2929 405.203 40.4422 404.774C40.6009 404.335 40.6802 403.822 40.6802 403.234C40.6802 402.637 40.6009 402.128 40.4422 401.708C40.2836 401.288 40.0409 400.966 39.7142 400.742C39.3969 400.509 38.9816 400.392 38.4682 400.392C37.7029 400.392 37.1476 400.644 36.8022 401.148C36.4569 401.652 36.2842 402.347 36.2842 403.234ZM46.9168 407.14C46.2541 407.14 45.6615 407.005 45.1388 406.734C44.6255 406.463 44.2195 406.043 43.9208 405.474C43.6315 404.905 43.4868 404.177 43.4868 403.29C43.4868 402.366 43.6408 401.615 43.9488 401.036C44.2568 400.457 44.6721 400.033 45.1948 399.762C45.7268 399.491 46.3288 399.356 47.0008 399.356C47.3835 399.356 47.7521 399.398 48.1068 399.482C48.4615 399.557 48.7508 399.65 48.9748 399.762L48.5968 400.784C48.3728 400.7 48.1115 400.621 47.8128 400.546C47.5141 400.471 47.2341 400.434 46.9728 400.434C46.4688 400.434 46.0535 400.541 45.7268 400.756C45.4001 400.971 45.1575 401.288 44.9988 401.708C44.8401 402.128 44.7608 402.651 44.7608 403.276C44.7608 403.873 44.8401 404.382 44.9988 404.802C45.1575 405.222 45.3955 405.539 45.7128 405.754C46.0301 405.969 46.4268 406.076 46.9028 406.076C47.3135 406.076 47.6728 406.034 47.9808 405.95C48.2981 405.866 48.5875 405.763 48.8488 405.642V406.734C48.5968 406.865 48.3168 406.963 48.0088 407.028C47.7101 407.103 47.3461 407.14 46.9168 407.14ZM53.4754 399.37C54.39 399.37 55.0667 399.571 55.5054 399.972C55.944 400.373 56.1634 401.013 56.1634 401.89V407H55.2674L55.0294 405.936H54.9734C54.7587 406.207 54.5347 406.435 54.3014 406.622C54.0774 406.799 53.816 406.93 53.5174 407.014C53.228 407.098 52.8734 407.14 52.4534 407.14C52.0054 407.14 51.5994 407.061 51.2354 406.902C50.8807 406.743 50.6007 406.501 50.3954 406.174C50.19 405.838 50.0874 405.418 50.0874 404.914C50.0874 404.167 50.3814 403.593 50.9694 403.192C51.5574 402.781 52.4627 402.557 53.6854 402.52L54.9594 402.478V402.03C54.9594 401.405 54.824 400.971 54.5534 400.728C54.2827 400.485 53.9 400.364 53.4054 400.364C53.0134 400.364 52.64 400.425 52.2854 400.546C51.9307 400.658 51.5994 400.789 51.2914 400.938L50.9134 400.014C51.24 399.837 51.6274 399.687 52.0754 399.566C52.5234 399.435 52.99 399.37 53.4754 399.37ZM53.8394 403.374C52.906 403.411 52.2574 403.561 51.8934 403.822C51.5387 404.083 51.3614 404.452 51.3614 404.928C51.3614 405.348 51.4874 405.656 51.7394 405.852C52.0007 406.048 52.332 406.146 52.7334 406.146C53.368 406.146 53.8954 405.973 54.3154 405.628C54.7354 405.273 54.9454 404.732 54.9454 404.004V403.332L53.8394 403.374ZM64.053 399.496V405.964H65.145V409.604H63.955V407H58.733V409.604H57.557V405.964H58.159C58.5883 405.367 58.943 404.718 59.223 404.018C59.5123 403.309 59.727 402.571 59.867 401.806C60.0163 401.031 60.0957 400.261 60.105 399.496H64.053ZM61.197 400.462C61.1597 401.097 61.0617 401.755 60.903 402.436C60.7443 403.108 60.539 403.752 60.287 404.368C60.0443 404.984 59.7597 405.516 59.433 405.964H62.863V400.462H61.197ZM71.0538 399.496H72.3978L69.1918 403.108L72.6638 407H71.2358L67.8478 403.192V407H66.6158V399.496H67.8478V403.136L71.0538 399.496ZM80.2765 403.234C80.2765 403.859 80.1925 404.415 80.0245 404.9C79.8658 405.376 79.6325 405.782 79.3245 406.118C79.0258 406.454 78.6572 406.711 78.2185 406.888C77.7892 407.056 77.3085 407.14 76.7765 407.14C76.2818 407.14 75.8245 407.056 75.4045 406.888C74.9845 406.711 74.6205 406.454 74.3125 406.118C74.0045 405.782 73.7618 405.376 73.5845 404.9C73.4165 404.415 73.3325 403.859 73.3325 403.234C73.3325 402.403 73.4725 401.703 73.7525 401.134C74.0325 400.555 74.4338 400.117 74.9565 399.818C75.4792 399.51 76.0998 399.356 76.8185 399.356C77.4998 399.356 78.0972 399.51 78.6105 399.818C79.1332 400.117 79.5392 400.555 79.8285 401.134C80.1272 401.703 80.2765 402.403 80.2765 403.234ZM74.6065 403.234C74.6065 403.822 74.6812 404.335 74.8305 404.774C74.9892 405.203 75.2318 405.535 75.5585 405.768C75.8852 406.001 76.3005 406.118 76.8045 406.118C77.3085 406.118 77.7238 406.001 78.0505 405.768C78.3772 405.535 78.6152 405.203 78.7645 404.774C78.9232 404.335 79.0025 403.822 79.0025 403.234C79.0025 402.637 78.9232 402.128 78.7645 401.708C78.6058 401.288 78.3632 400.966 78.0365 400.742C77.7192 400.509 77.3038 400.392 76.7905 400.392C76.0252 400.392 75.4698 400.644 75.1245 401.148C74.7792 401.652 74.6065 402.347 74.6065 403.234ZM88.2631 401.386C88.2631 401.853 88.1231 402.217 87.8431 402.478C87.5631 402.739 87.2037 402.917 86.7651 403.01V403.066C87.2317 403.131 87.6377 403.299 87.9831 403.57C88.3284 403.831 88.5011 404.242 88.5011 404.802C88.5011 405.119 88.4404 405.413 88.3191 405.684C88.2071 405.955 88.0297 406.188 87.7871 406.384C87.5444 406.58 87.2317 406.734 86.8491 406.846C86.4664 406.949 86.0044 407 85.4631 407H82.2291V399.496H85.4491C85.9811 399.496 86.4571 399.557 86.8771 399.678C87.3064 399.79 87.6424 399.986 87.8851 400.266C88.1371 400.537 88.2631 400.91 88.2631 401.386ZM87.2271 404.802C87.2271 404.373 87.0637 404.065 86.7371 403.878C86.4104 403.691 85.9297 403.598 85.2951 403.598H83.4611V406.006H85.3231C85.9391 406.006 86.4104 405.917 86.7371 405.74C87.0637 405.553 87.2271 405.241 87.2271 404.802ZM87.0171 401.54C87.0171 401.185 86.8864 400.929 86.6251 400.77C86.3731 400.602 85.9577 400.518 85.3791 400.518H83.4611V402.576H85.1551C85.7617 402.576 86.2237 402.492 86.5411 402.324C86.8584 402.156 87.0171 401.895 87.0171 401.54ZM91.5275 399.496V407H90.2955V399.496H91.5275ZM90.9255 396.682C91.1121 396.682 91.2755 396.747 91.4155 396.878C91.5648 396.999 91.6395 397.195 91.6395 397.466C91.6395 397.727 91.5648 397.923 91.4155 398.054C91.2755 398.185 91.1121 398.25 90.9255 398.25C90.7201 398.25 90.5475 398.185 90.4075 398.054C90.2675 397.923 90.1975 397.727 90.1975 397.466C90.1975 397.195 90.2675 396.999 90.4075 396.878C90.5475 396.747 90.7201 396.682 90.9255 396.682ZM105.797 399.496V407H104.691V402.212C104.691 402.016 104.695 401.811 104.705 401.596C104.723 401.381 104.742 401.171 104.761 400.966H104.719L102.269 407H101.233L98.8526 400.966H98.8106C98.8293 401.171 98.8386 401.381 98.8386 401.596C98.848 401.811 98.8526 402.03 98.8526 402.254V407H97.7466V399.496H99.3846L101.751 405.53L104.159 399.496H105.797ZM109.424 399.496V407H108.192V399.496H109.424ZM108.822 396.682C109.009 396.682 109.172 396.747 109.312 396.878C109.461 396.999 109.536 397.195 109.536 397.466C109.536 397.727 109.461 397.923 109.312 398.054C109.172 398.185 109.009 398.25 108.822 398.25C108.617 398.25 108.444 398.185 108.304 398.054C108.164 397.923 108.094 397.727 108.094 397.466C108.094 397.195 108.164 396.999 108.304 396.878C108.444 396.747 108.617 396.682 108.822 396.682ZM114.811 407.14C114.149 407.14 113.556 407.005 113.033 406.734C112.52 406.463 112.114 406.043 111.815 405.474C111.526 404.905 111.381 404.177 111.381 403.29C111.381 402.366 111.535 401.615 111.843 401.036C112.151 400.457 112.567 400.033 113.089 399.762C113.621 399.491 114.223 399.356 114.895 399.356C115.278 399.356 115.647 399.398 116.001 399.482C116.356 399.557 116.645 399.65 116.869 399.762L116.491 400.784C116.267 400.7 116.006 400.621 115.707 400.546C115.409 400.471 115.129 400.434 114.867 400.434C114.363 400.434 113.948 400.541 113.621 400.756C113.295 400.971 113.052 401.288 112.893 401.708C112.735 402.128 112.655 402.651 112.655 403.276C112.655 403.873 112.735 404.382 112.893 404.802C113.052 405.222 113.29 405.539 113.607 405.754C113.925 405.969 114.321 406.076 114.797 406.076C115.208 406.076 115.567 406.034 115.875 405.95C116.193 405.866 116.482 405.763 116.743 405.642V406.734C116.491 406.865 116.211 406.963 115.903 407.028C115.605 407.103 115.241 407.14 114.811 407.14ZM125.934 409.604H124.73V407H118.528V399.496H119.76V405.964H123.638V399.496H124.87V405.978H125.934V409.604ZM127.836 407H126.408L128.55 403.85C128.26 403.775 127.98 403.659 127.71 403.5C127.439 403.332 127.22 403.103 127.052 402.814C126.884 402.515 126.8 402.147 126.8 401.708C126.8 400.989 127.042 400.443 127.528 400.07C128.013 399.687 128.657 399.496 129.46 399.496H132.82V407H131.588V404.018H129.768L127.836 407ZM127.99 401.722C127.99 402.151 128.148 402.473 128.466 402.688C128.792 402.893 129.245 402.996 129.824 402.996H131.588V400.518H129.586C129.016 400.518 128.606 400.63 128.354 400.854C128.111 401.078 127.99 401.367 127.99 401.722ZM135.292 407.07C135.087 407.07 134.914 407 134.774 406.86C134.643 406.72 134.578 406.547 134.578 406.342C134.578 406.137 134.643 405.969 134.774 405.838C134.914 405.698 135.087 405.628 135.292 405.628C135.488 405.628 135.651 405.698 135.782 405.838C135.922 405.969 135.992 406.137 135.992 406.342C135.992 406.547 135.922 406.72 135.782 406.86C135.651 407 135.488 407.07 135.292 407.07ZM135.292 400.98C135.087 400.98 134.914 400.91 134.774 400.77C134.643 400.63 134.578 400.457 134.578 400.252C134.578 400.047 134.643 399.879 134.774 399.748C134.914 399.608 135.087 399.538 135.292 399.538C135.488 399.538 135.651 399.608 135.782 399.748C135.922 399.879 135.992 400.047 135.992 400.252C135.992 400.457 135.922 400.63 135.782 400.77C135.651 400.91 135.488 400.98 135.292 400.98ZM147.654 401.386C147.654 401.853 147.514 402.217 147.234 402.478C146.954 402.739 146.594 402.917 146.156 403.01V403.066C146.622 403.131 147.028 403.299 147.374 403.57C147.719 403.831 147.892 404.242 147.892 404.802C147.892 405.119 147.831 405.413 147.71 405.684C147.598 405.955 147.42 406.188 147.178 406.384C146.935 406.58 146.622 406.734 146.24 406.846C145.857 406.949 145.395 407 144.854 407H141.62V399.496H144.84C145.372 399.496 145.848 399.557 146.268 399.678C146.697 399.79 147.033 399.986 147.276 400.266C147.528 400.537 147.654 400.91 147.654 401.386ZM146.618 404.802C146.618 404.373 146.454 404.065 146.128 403.878C145.801 403.691 145.32 403.598 144.686 403.598H142.852V406.006H144.714C145.33 406.006 145.801 405.917 146.128 405.74C146.454 405.553 146.618 405.241 146.618 404.802ZM146.408 401.54C146.408 401.185 146.277 400.929 146.016 400.77C145.764 400.602 145.348 400.518 144.77 400.518H142.852V402.576H144.546C145.152 402.576 145.614 402.492 145.932 402.324C146.249 402.156 146.408 401.895 146.408 401.54ZM150.918 399.496V407H149.686V399.496H150.918ZM150.316 396.682C150.503 396.682 150.666 396.747 150.806 396.878C150.955 396.999 151.03 397.195 151.03 397.466C151.03 397.727 150.955 397.923 150.806 398.054C150.666 398.185 150.503 398.25 150.316 398.25C150.111 398.25 149.938 398.185 149.798 398.054C149.658 397.923 149.588 397.727 149.588 397.466C149.588 397.195 149.658 396.999 149.798 396.878C149.938 396.747 150.111 396.682 150.316 396.682ZM158.867 399.496V405.964H159.959V409.604H158.769V407H153.547V409.604H152.371V405.964H152.973C153.403 405.367 153.757 404.718 154.037 404.018C154.327 403.309 154.541 402.571 154.681 401.806C154.831 401.031 154.91 400.261 154.919 399.496H158.867ZM156.011 400.462C155.974 401.097 155.876 401.755 155.717 402.436C155.559 403.108 155.353 403.752 155.101 404.368C154.859 404.984 154.574 405.516 154.247 405.964H157.677V400.462H156.011ZM164.44 407.14C163.778 407.14 163.185 407.005 162.662 406.734C162.149 406.463 161.743 406.043 161.444 405.474C161.155 404.905 161.01 404.177 161.01 403.29C161.01 402.366 161.164 401.615 161.472 401.036C161.78 400.457 162.196 400.033 162.718 399.762C163.25 399.491 163.852 399.356 164.524 399.356C164.907 399.356 165.276 399.398 165.63 399.482C165.985 399.557 166.274 399.65 166.498 399.762L166.12 400.784C165.896 400.7 165.635 400.621 165.336 400.546C165.038 400.471 164.758 400.434 164.496 400.434C163.992 400.434 163.577 400.541 163.25 400.756C162.924 400.971 162.681 401.288 162.522 401.708C162.364 402.128 162.284 402.651 162.284 403.276C162.284 403.873 162.364 404.382 162.522 404.802C162.681 405.222 162.919 405.539 163.236 405.754C163.554 405.969 163.95 406.076 164.426 406.076C164.837 406.076 165.196 406.034 165.504 405.95C165.822 405.866 166.111 405.763 166.372 405.642V406.734C166.12 406.865 165.84 406.963 165.532 407.028C165.234 407.103 164.87 407.14 164.44 407.14ZM166.981 399.496H168.297L169.921 403.766C170.014 404.018 170.098 404.261 170.173 404.494C170.257 404.727 170.331 404.956 170.397 405.18C170.462 405.395 170.513 405.605 170.551 405.81H170.607C170.663 405.577 170.751 405.273 170.873 404.9C170.994 404.517 171.12 404.135 171.251 403.752L172.777 399.496H174.107L170.873 408.036C170.695 408.503 170.485 408.909 170.243 409.254C170.009 409.609 169.72 409.879 169.375 410.066C169.039 410.262 168.628 410.36 168.143 410.36C167.919 410.36 167.723 410.346 167.555 410.318C167.387 410.299 167.242 410.276 167.121 410.248V409.268C167.223 409.287 167.345 409.305 167.485 409.324C167.634 409.343 167.788 409.352 167.947 409.352C168.236 409.352 168.483 409.296 168.689 409.184C168.903 409.081 169.085 408.927 169.235 408.722C169.384 408.526 169.51 408.293 169.613 408.022L170.005 407.028L166.981 399.496ZM180.474 400.532H178.024V407H176.806V400.532H174.384V399.496H180.474V400.532ZM183.184 399.496V402.618H187.258V399.496H188.49V407H187.258V403.654H183.184V407H181.952V399.496H183.184ZM192.098 399.496V407H190.866V399.496H192.098ZM191.496 396.682C191.682 396.682 191.846 396.747 191.986 396.878C192.135 396.999 192.21 397.195 192.21 397.466C192.21 397.727 192.135 397.923 191.986 398.054C191.846 398.185 191.682 398.25 191.496 398.25C191.29 398.25 191.118 398.185 190.978 398.054C190.838 397.923 190.768 397.727 190.768 397.466C190.768 397.195 190.838 396.999 190.978 396.878C191.118 396.747 191.29 396.682 191.496 396.682Z" fill="#FAF4EA"/>
<defs>
<linearGradient id="paint0_linear_38_648" x1="174.5" y1="0" x2="174.5" y2="444" gradientUnits="userSpaceOnUse">
<stop offset="0.552083" stop-color="#31261A" stop-opacity="0"/>
<stop offset="0.729167" stop-color="#31261A" stop-opacity="0.71"/>
<stop offset="1" stop-color="#31261A"/>
</linearGradient>
</defs>
</svg>
